<svg id="svg" version="1.1" xmlns="http://www.w3.org/2000/svg" xmlns:xlink="http://www.w3.org/1999/xlink" width="400" height="400" viewBox="0, 0, 400,400"><g id="svgg"><path id="path0" d="M266.384 161.600 C 259.877 162.188,244.367 165.107,237.664 167.005 C 228.358 169.640,226.935 170.253,225.983 172.031 C 225.512 172.911,225.835 172.995,227.402 172.399 C 228.369 172.032,231.724 171.118,243.800 167.933 C 259.333 163.837,276.738 162.677,284.888 165.194 C 299.714 169.774,287.463 187.013,255.940 205.929 L 252.480 208.006 247.740 204.871 C 242.757 201.576,237.964 198.686,237.808 198.883 C 236.699 200.280,237.310 201.695,239.443 202.671 C 242.451 204.048,249.985 208.739,249.995 209.241 C 250.001 209.513,241.758 213.947,234.831 217.399 C 225.933 221.833,210.907 228.305,203.218 231.014 C 200.243 232.063,201.468 232.368,191.200 228.014 C 179.866 223.209,161.350 213.569,153.895 208.592 L 151.990 207.321 156.495 204.518 C 161.564 201.364,171.329 195.793,176.300 193.219 C 179.553 191.535,180.041 191.001,179.145 190.105 C 178.400 189.360,162.105 197.835,152.724 203.849 C 149.249 206.076,149.774 206.176,144.057 202.207 C 127.555 190.753,117.662 179.914,117.507 173.121 C 117.312 164.558,134.618 163.088,160.748 169.448 C 168.704 171.384,168.560 171.376,168.180 169.864 C 167.973 169.039,167.512 168.718,165.861 168.249 C 110.342 152.478,96.509 172.190,140.924 203.783 C 143.962 205.944,146.302 207.853,146.124 208.025 C 145.946 208.197,143.790 209.837,141.333 211.669 C 124.923 223.905,118.016 233.918,121.021 241.113 C 125.641 252.173,155.680 250.796,194.254 237.754 L 200.709 235.572 203.854 236.823 C 210.882 239.618,226.021 244.433,235.000 246.729 L 239.400 247.854 239.665 249.827 C 239.811 250.912,239.946 253.454,239.965 255.476 C 239.997 258.788,240.601 260.797,241.108 259.276 C 241.193 259.020,241.588 258.410,241.984 257.920 L 242.705 257.029 245.853 258.480 C 253.215 261.874,260.049 260.539,264.186 254.901 C 266.031 252.386,265.990 252.000,263.883 252.000 C 262.196 252.000,262.158 252.030,261.703 253.731 C 259.337 262.577,247.533 261.211,242.405 251.498 C 240.627 248.131,240.654 248.116,246.495 249.125 C 284.594 255.708,293.395 241.293,265.600 217.830 C 261.215 214.128,257.363 211.200,256.879 211.200 C 255.425 211.200,255.637 209.990,257.271 208.956 C 272.850 199.104,282.463 191.438,288.202 184.289 C 300.794 168.602,291.847 159.298,266.384 161.600 M203.707 178.686 L 200.014 180.101 200.661 181.196 C 201.399 182.445,203.405 183.768,204.001 183.399 C 204.686 182.976,204.438 181.935,203.600 181.716 C 202.308 181.378,202.665 180.929,204.846 180.145 C 206.253 179.639,207.007 179.109,207.257 178.449 C 207.765 177.113,207.820 177.110,203.707 178.686 M215.649 189.052 C 215.386 189.630,215.222 190.141,215.285 190.187 C 215.348 190.233,217.840 191.549,220.821 193.111 L 226.243 195.952 226.714 194.703 C 226.974 194.015,227.144 193.426,227.093 193.393 C 226.217 192.830,216.692 188.000,216.457 188.000 C 216.276 188.000,215.913 188.473,215.649 189.052 M229.600 193.283 C 228.069 194.320,227.961 194.632,226.449 202.341 C 225.546 206.946,223.980 210.683,222.018 212.919 C 220.406 214.754,220.658 214.784,223.099 213.048 C 224.145 212.305,226.655 210.769,228.677 209.636 C 234.479 206.384,236.400 203.647,236.400 198.634 C 236.400 193.735,232.946 191.017,229.600 193.283 M151.328 210.743 C 154.562 212.954,163.087 217.748,171.400 222.030 C 178.695 225.788,182.482 227.607,193.600 232.697 L 195.800 233.704 192.400 234.866 C 157.264 246.881,126.190 248.818,123.588 239.156 C 122.166 233.873,130.443 223.136,143.387 213.473 C 149.218 209.120,149.042 209.180,151.328 210.743 M260.400 216.534 C 283.632 235.093,285.694 247.232,265.728 247.912 C 252.923 248.347,233.807 244.265,212.705 236.590 C 204.672 233.668,204.918 234.002,209.483 232.215 C 222.026 227.305,238.537 219.609,248.400 214.075 C 254.253 210.791,252.851 210.504,260.400 216.534 M248.133 221.540 C 242.505 223.485,239.575 228.158,240.972 232.963 C 242.131 236.950,244.427 238.824,251.554 241.601 C 256.708 243.610,257.706 244.136,259.598 245.845 C 261.646 247.696,266.281 247.576,265.807 245.684 C 264.918 242.145,262.148 240.001,254.559 236.976 C 245.119 233.215,242.787 229.886,246.093 224.890 C 249.933 219.087,258.653 221.631,262.928 229.800 C 264.487 232.781,264.695 232.037,264.025 225.877 C 263.515 221.186,263.453 221.070,262.261 222.564 L 261.358 223.697 259.691 222.847 C 255.734 220.827,251.561 220.356,248.133 221.540 " stroke="none" fill="#0e0e0e" fill-rule="evenodd"></path><path id="path1" d="M188.800 79.807 C 118.325 87.813,70.868 150.165,86.439 214.297 C 103.777 285.702,191.006 322.307,258.269 286.402 C 330.750 247.712,338.935 152.423,274.000 103.254 C 250.264 85.282,218.224 76.464,188.800 79.807 M184.711 121.423 C 186.915 122.967,185.450 124.301,180.780 125.003 C 169.241 126.736,166.913 130.731,171.801 140.409 C 173.770 144.307,197.927 179.013,199.233 179.820 C 199.442 179.950,201.518 179.311,203.846 178.401 C 206.174 177.490,208.164 176.831,208.269 176.936 C 208.857 177.523,207.057 179.588,205.409 180.218 C 203.458 180.963,203.161 181.407,204.359 181.787 C 204.878 181.952,205.052 182.278,204.911 182.820 C 204.607 183.982,204.165 184.106,202.812 183.406 C 202.145 183.061,201.600 182.893,201.600 183.032 C 201.600 183.243,203.396 185.722,204.432 186.941 C 205.412 188.094,234.687 147.339,238.151 140.000 C 242.002 131.840,238.006 126.280,227.230 124.804 C 222.739 124.189,222.044 123.794,222.654 122.204 C 223.165 120.872,225.516 120.757,249.735 120.879 L 273.671 121.000 274.446 121.957 C 275.849 123.690,274.768 124.545,270.753 124.878 C 259.632 125.799,253.085 131.034,238.805 150.418 C 209.059 190.798,210.747 188.045,209.978 197.443 C 209.481 203.512,209.264 227.395,209.701 227.834 C 210.574 228.710,248.578 210.865,249.086 209.341 C 249.290 208.730,237.765 201.600,236.574 201.600 C 236.548 201.600,236.319 202.293,236.065 203.140 C 235.418 205.299,232.149 208.248,227.800 210.595 C 225.820 211.663,223.544 213.046,222.742 213.669 C 220.266 215.591,219.667 215.140,221.669 212.861 C 223.930 210.285,225.515 206.165,226.534 200.215 C 227.780 192.935,229.711 190.866,233.704 192.534 C 235.734 193.382,236.450 194.720,236.792 198.304 C 236.955 200.007,237.116 200.950,237.150 200.400 C 237.303 197.930,238.199 198.293,248.792 205.123 L 252.585 207.568 254.392 206.531 C 255.387 205.960,259.559 203.275,263.665 200.564 C 311.534 168.955,293.759 153.559,230.441 171.788 C 224.909 173.380,224.794 173.374,225.869 171.519 C 227.312 169.028,247.625 163.629,262.388 161.814 C 304.976 156.575,304.583 179.361,261.617 206.561 L 255.992 210.122 258.096 211.529 C 270.636 219.917,282.400 233.723,282.400 240.052 C 282.400 250.019,269.296 253.502,246.672 249.548 C 241.069 248.569,241.293 248.457,242.803 251.480 C 247.345 260.569,259.477 261.782,261.463 253.346 C 261.822 251.818,261.851 251.799,263.913 251.679 C 266.444 251.532,266.649 252.183,264.853 254.664 C 260.410 260.796,252.736 262.441,245.406 258.833 C 242.649 257.476,242.170 257.502,241.585 259.039 C 240.486 261.929,239.615 259.716,239.600 254.000 C 239.585 248.218,239.582 248.211,236.868 247.615 C 233.361 246.845,220.339 243.038,215.030 241.231 C 209.362 239.302,209.848 239.027,210.386 243.860 C 211.479 253.681,213.679 255.650,225.517 257.408 C 230.206 258.104,230.897 258.444,230.720 259.963 C 230.482 262.009,229.913 262.061,212.118 261.651 C 201.458 261.405,191.709 261.415,184.000 261.679 C 171.162 262.119,170.000 262.001,170.000 260.259 C 170.000 258.840,170.642 258.522,174.439 258.061 C 183.378 256.976,187.543 252.361,189.382 241.500 C 189.703 239.605,189.690 239.605,183.695 241.429 C 159.105 248.911,135.401 250.953,126.117 246.387 C 114.180 240.518,119.695 227.586,140.931 211.650 C 145.239 208.417,145.951 207.736,145.374 207.400 C 144.996 207.180,141.722 204.840,138.097 202.200 C 105.260 178.282,106.295 159.352,140.252 162.778 C 147.554 163.514,163.949 166.898,167.500 168.402 C 168.747 168.930,168.725 168.879,165.750 164.288 C 147.436 136.030,138.744 126.704,129.173 125.042 C 124.404 124.214,122.609 122.230,125.600 121.092 C 127.212 120.478,183.815 120.795,184.711 121.423 M125.286 166.601 C 112.476 169.425,116.409 180.088,136.000 195.655 C 141.815 200.276,148.817 205.200,149.572 205.200 C 149.794 205.200,153.176 203.280,157.088 200.933 C 161.000 198.586,167.514 194.965,171.564 192.887 L 178.928 189.109 179.633 190.043 C 180.562 191.275,180.670 191.174,175.497 193.915 C 169.359 197.168,160.103 202.488,156.046 205.096 L 152.691 207.252 154.216 208.288 C 160.558 212.598,186.404 226.174,189.644 226.897 C 190.608 227.112,189.852 211.239,188.597 204.916 C 187.757 200.686,182.552 190.870,173.189 175.860 C 169.780 170.394,167.302 167.253,169.206 170.812 C 169.876 172.064,169.867 172.063,163.995 170.580 C 147.591 166.435,132.893 164.925,125.286 166.601 M221.692 190.198 C 228.304 193.698,227.795 193.264,227.027 194.747 C 226.671 195.436,226.264 196.000,226.124 196.000 C 225.885 196.000,215.152 190.466,214.871 190.198 C 214.626 189.965,216.021 187.600,216.403 187.600 C 216.613 187.600,218.993 188.769,221.692 190.198 M143.546 213.700 C 132.521 221.960,124.603 231.108,123.791 236.521 C 122.179 247.268,146.291 247.979,180.359 238.191 C 190.701 235.220,190.000 235.564,190.000 233.453 L 190.000 231.686 176.300 224.859 C 168.765 221.104,159.586 216.225,155.901 214.016 C 147.882 209.208,149.486 209.249,143.546 213.700 M249.779 213.677 C 240.539 218.892,223.740 226.863,212.900 231.177 C 209.879 232.379,209.600 232.583,209.600 233.596 C 209.600 235.160,209.740 235.232,218.400 238.142 C 256.375 250.905,282.399 250.809,278.652 237.921 C 276.899 231.889,266.616 221.040,254.579 212.522 L 253.357 211.657 249.779 213.677 M256.427 221.044 C 257.622 221.398,259.277 222.033,260.104 222.454 L 261.608 223.220 262.068 222.210 C 262.857 220.478,263.891 220.919,264.152 223.100 C 265.220 232.035,264.723 234.190,262.573 229.947 C 258.359 221.631,249.191 219.521,245.764 226.080 C 243.618 230.188,245.983 233.187,253.725 236.179 C 262.490 239.567,266.400 242.759,266.400 246.526 C 266.400 247.640,260.794 247.498,259.762 246.359 C 258.625 245.102,256.224 243.808,252.151 242.255 C 245.352 239.665,242.793 237.923,241.201 234.803 C 237.041 226.647,246.499 218.101,256.427 221.044 " stroke="none" fill="#fbfbfb" fill-rule="evenodd"></path><path id="path2" d="M125.600 121.092 C 122.609 122.230,124.404 124.214,129.173 125.042 C 137.814 126.543,144.139 132.662,158.281 153.200 C 165.572 163.789,168.399 168.282,168.406 169.288 C 168.410 169.885,168.521 170.029,168.727 169.705 C 169.238 168.900,181.394 188.886,186.251 198.516 C 188.824 203.619,189.885 210.134,190.047 221.840 L 190.120 227.079 195.450 229.341 L 200.781 231.603 205.045 230.002 C 207.390 229.121,209.599 228.397,209.954 228.394 C 210.517 228.389,210.523 228.339,210.000 228.008 C 208.814 227.257,209.525 195.534,210.837 190.663 C 211.700 187.456,214.687 183.158,238.805 150.418 C 253.085 131.034,259.632 125.799,270.753 124.878 C 274.768 124.545,275.849 123.690,274.446 121.957 L 273.671 121.000 249.735 120.879 C 225.516 120.757,223.165 120.872,222.654 122.204 C 222.044 123.794,222.739 124.189,227.230 124.804 C 238.006 126.280,242.002 131.840,238.151 140.000 C 234.687 147.339,205.412 188.094,204.432 186.941 C 203.384 185.708,201.600 183.242,201.600 183.026 C 201.600 182.633,199.864 180.241,199.329 179.896 C 197.919 178.987,173.842 144.450,171.801 140.409 C 166.913 130.731,169.241 126.736,180.780 125.003 C 185.450 124.301,186.915 122.967,184.711 121.423 C 183.815 120.795,127.212 120.478,125.600 121.092 M127.300 162.676 C 127.685 162.776,128.315 162.776,128.700 162.676 C 129.085 162.575,128.770 162.493,128.000 162.493 C 127.230 162.493,126.915 162.575,127.300 162.676 M131.300 165.896 C 132.565 165.975,134.635 165.975,135.900 165.896 C 137.165 165.816,136.130 165.751,133.600 165.751 C 131.070 165.751,130.035 165.816,131.300 165.896 M114.120 173.200 C 114.120 174.410,114.195 174.905,114.287 174.300 C 114.378 173.695,114.378 172.705,114.287 172.100 C 114.195 171.495,114.120 171.990,114.120 173.200 M284.000 189.000 C 282.361 190.650,281.110 192.000,281.220 192.000 C 281.330 192.000,282.761 190.650,284.400 189.000 C 286.039 187.350,287.290 186.000,287.180 186.000 C 287.070 186.000,285.639 187.350,284.000 189.000 M120.400 186.525 C 120.400 186.594,120.985 187.179,121.700 187.825 L 123.000 189.000 121.825 187.700 C 120.730 186.488,120.400 186.216,120.400 186.525 M129.200 190.125 C 129.200 190.194,129.785 190.779,130.500 191.425 L 131.800 192.600 130.625 191.300 C 129.530 190.088,129.200 189.816,129.200 190.125 M127.600 193.800 C 128.346 194.570,129.047 195.200,129.157 195.200 C 129.267 195.200,128.746 194.570,128.000 193.800 C 127.254 193.030,126.553 192.400,126.443 192.400 C 126.333 192.400,126.854 193.030,127.600 193.800 M130.000 195.725 C 130.000 195.794,130.585 196.379,131.300 197.025 L 132.600 198.200 131.425 196.900 C 130.330 195.688,130.000 195.416,130.000 195.725 M142.269 205.232 C 142.766 205.833,145.200 207.364,145.200 207.076 C 145.200 206.983,144.435 206.402,143.500 205.785 C 142.565 205.168,142.011 204.920,142.269 205.232 M258.800 212.125 C 258.800 212.224,259.461 212.809,260.268 213.425 C 261.076 214.041,261.611 214.341,261.456 214.091 C 261.140 213.579,258.800 211.847,258.800 212.125 M160.400 216.579 C 160.400 216.689,160.940 217.059,161.600 217.400 C 162.260 217.741,162.800 217.931,162.800 217.821 C 162.800 217.711,162.260 217.341,161.600 217.000 C 160.940 216.659,160.400 216.469,160.400 216.579 M267.200 219.000 C 267.946 219.770,268.647 220.400,268.757 220.400 C 268.867 220.400,268.346 219.770,267.600 219.000 C 266.854 218.230,266.153 217.600,266.043 217.600 C 265.933 217.600,266.454 218.230,267.200 219.000 M171.633 218.549 C 172.045 218.917,174.400 220.000,174.400 219.821 C 174.400 219.590,172.182 218.400,171.753 218.400 C 171.596 218.400,171.542 218.467,171.633 218.549 M128.981 221.700 L 127.400 223.400 129.100 221.819 C 130.681 220.348,130.984 220.000,130.681 220.000 C 130.616 220.000,129.851 220.765,128.981 221.700 M132.400 223.000 C 130.761 224.650,129.510 226.000,129.620 226.000 C 129.730 226.000,131.161 224.650,132.800 223.000 C 134.439 221.350,135.690 220.000,135.580 220.000 C 135.470 220.000,134.039 221.350,132.400 223.000 M264.400 220.125 C 264.400 220.194,264.985 220.779,265.700 221.425 L 267.000 222.600 265.825 221.300 C 264.730 220.088,264.400 219.816,264.400 220.125 M251.700 220.687 C 252.305 220.778,253.295 220.778,253.900 220.687 C 254.505 220.595,254.010 220.520,252.800 220.520 C 251.590 220.520,251.095 220.595,251.700 220.687 M269.200 220.525 C 269.200 220.594,269.785 221.179,270.500 221.825 L 271.800 223.000 270.625 221.700 C 269.530 220.488,269.200 220.216,269.200 220.525 M246.975 224.100 L 245.800 225.400 247.100 224.225 C 247.815 223.579,248.400 222.994,248.400 222.925 C 248.400 222.616,248.070 222.888,246.975 224.100 M264.101 224.600 C 264.105 225.480,264.187 225.793,264.283 225.295 C 264.379 224.798,264.375 224.078,264.275 223.695 C 264.175 223.313,264.096 223.720,264.101 224.600 M259.400 225.600 C 260.259 226.480,261.052 227.200,261.162 227.200 C 261.272 227.200,260.659 226.480,259.800 225.600 C 258.941 224.720,258.148 224.000,258.038 224.000 C 257.928 224.000,258.541 224.720,259.400 225.600 M240.093 230.800 C 240.093 231.570,240.175 231.885,240.276 231.500 C 240.376 231.115,240.376 230.485,240.276 230.100 C 240.175 229.715,240.093 230.030,240.093 230.800 M189.346 231.282 C 189.924 231.727,190.059 232.256,189.946 233.635 L 189.800 235.413 192.100 234.607 C 194.915 233.620,194.920 233.671,191.883 232.200 C 188.783 230.698,188.413 230.564,189.346 231.282 M208.053 233.087 C 207.313 233.391,206.773 233.699,206.853 233.771 C 207.463 234.315,210.496 235.597,210.132 235.157 C 209.878 234.851,209.610 234.135,209.535 233.567 C 209.403 232.557,209.368 232.546,208.053 233.087 M195.000 237.827 C 192.360 238.772,189.750 239.579,189.200 239.619 C 188.480 239.672,188.399 239.745,188.912 239.878 C 189.709 240.085,189.641 241.016,188.508 245.400 C 186.431 253.442,182.367 257.099,174.439 258.061 C 170.642 258.522,170.000 258.840,170.000 260.259 C 170.000 262.001,171.162 262.119,184.000 261.679 C 191.709 261.415,201.458 261.405,212.118 261.651 C 229.913 262.061,230.482 262.009,230.720 259.963 C 230.897 258.444,230.206 258.104,225.517 257.408 C 213.387 255.607,210.721 252.958,210.317 242.303 C 210.225 239.869,210.071 239.206,209.599 239.203 C 209.268 239.202,207.109 238.480,204.800 237.600 C 199.870 235.721,200.951 235.696,195.000 237.827 M282.101 240.200 C 282.105 241.080,282.187 241.393,282.283 240.895 C 282.379 240.398,282.375 239.678,282.275 239.295 C 282.175 238.913,282.096 239.320,282.101 240.200 M262.112 247.895 C 263.164 247.977,264.784 247.976,265.712 247.892 C 266.640 247.808,265.780 247.741,263.800 247.742 C 261.820 247.743,261.060 247.812,262.112 247.895 M146.900 248.676 C 147.285 248.776,147.915 248.776,148.300 248.676 C 148.685 248.575,148.370 248.493,147.600 248.493 C 146.830 248.493,146.515 248.575,146.900 248.676 M258.900 251.087 C 259.505 251.178,260.495 251.178,261.100 251.087 C 261.705 250.995,261.210 250.920,260.000 250.920 C 258.790 250.920,258.295 250.995,258.900 251.087 M265.305 251.087 C 265.914 251.179,266.814 251.177,267.305 251.082 C 267.797 250.987,267.300 250.911,266.200 250.914 C 265.100 250.917,264.697 250.995,265.305 251.087 M261.857 251.907 C 261.753 252.076,262.417 252.157,263.334 252.086 C 266.025 251.879,266.353 251.696,264.124 251.646 C 262.982 251.621,261.962 251.738,261.857 251.907 M245.600 255.800 C 246.346 256.570,247.047 257.200,247.157 257.200 C 247.267 257.200,246.746 256.570,246.000 255.800 C 245.254 255.030,244.553 254.400,244.443 254.400 C 244.333 254.400,244.854 255.030,245.600 255.800 M253.900 260.682 C 254.395 260.778,255.205 260.778,255.700 260.682 C 256.195 260.587,255.790 260.509,254.800 260.509 C 253.810 260.509,253.405 260.587,253.900 260.682 " stroke="none" fill="#ababab" fill-rule="evenodd"></path><path id="path3" d="M127.000 188.400 C 128.083 189.500,129.060 190.400,129.170 190.400 C 129.280 190.400,128.483 189.500,127.400 188.400 C 126.317 187.300,125.340 186.400,125.230 186.400 C 125.120 186.400,125.917 187.300,127.000 188.400 M124.383 190.500 C 126.041 192.266,126.400 192.584,126.400 192.283 C 126.400 192.219,125.545 191.364,124.500 190.383 L 122.600 188.600 124.383 190.500 M268.000 223.400 C 268.746 224.170,269.447 224.800,269.557 224.800 C 269.667 224.800,269.146 224.170,268.400 223.400 C 267.654 222.630,266.953 222.000,266.843 222.000 C 266.733 222.000,267.254 222.630,268.000 223.400 M262.500 251.076 C 262.885 251.176,263.515 251.176,263.900 251.076 C 264.285 250.975,263.970 250.893,263.200 250.893 C 262.430 250.893,262.115 250.975,262.500 251.076 " stroke="none" fill="#7c7c7c" fill-rule="evenodd"></path><path id="path4" d="M131.091 162.689 C 131.801 162.777,133.061 162.779,133.891 162.692 C 134.721 162.605,134.140 162.533,132.600 162.531 C 131.060 162.529,130.381 162.600,131.091 162.689 M271.105 163.883 C 271.602 163.979,272.322 163.975,272.705 163.875 C 273.087 163.775,272.680 163.696,271.800 163.701 C 270.920 163.705,270.607 163.787,271.105 163.883 M282.400 186.200 C 281.428 187.190,280.723 188.000,280.833 188.000 C 280.943 188.000,281.828 187.190,282.800 186.200 C 283.772 185.210,284.477 184.400,284.367 184.400 C 284.257 184.400,283.372 185.210,282.400 186.200 M271.800 223.600 C 273.106 224.920,274.265 226.000,274.375 226.000 C 274.485 226.000,273.506 224.920,272.200 223.600 C 270.894 222.280,269.735 221.200,269.625 221.200 C 269.515 221.200,270.494 222.280,271.800 223.600 M258.400 224.125 C 258.400 224.194,258.985 224.779,259.700 225.425 L 261.000 226.600 259.825 225.300 C 258.730 224.088,258.400 223.816,258.400 224.125 M139.100 245.493 C 140.035 245.577,141.565 245.577,142.500 245.493 C 143.435 245.409,142.670 245.340,140.800 245.340 C 138.930 245.340,138.165 245.409,139.100 245.493 M264.600 246.800 L 263.000 247.086 264.476 247.143 C 265.288 247.174,266.064 247.020,266.200 246.800 C 266.336 246.580,266.392 246.426,266.324 246.457 C 266.256 246.488,265.480 246.642,264.600 246.800 M239.724 253.400 C 239.726 254.720,239.801 255.212,239.890 254.493 C 239.979 253.774,239.977 252.694,239.886 252.093 C 239.795 251.492,239.722 252.080,239.724 253.400 M244.800 255.325 C 244.800 255.394,245.385 255.979,246.100 256.625 L 247.400 257.800 246.225 256.500 C 245.130 255.288,244.800 255.016,244.800 255.325 M250.500 260.276 C 250.885 260.376,251.515 260.376,251.900 260.276 C 252.285 260.175,251.970 260.093,251.200 260.093 C 250.430 260.093,250.115 260.175,250.500 260.276 " stroke="none" fill="#747474" fill-rule="evenodd"></path></g></svg>